<?xml version="1.0" encoding="UTF-8" standalone="no"?>
<!DOCTYPE svg PUBLIC "-//W3C//DTD SVG 1.1//EN" "http://www.w3.org/Graphics/SVG/1.1/DTD/svg11.dtd">
<svg width="100%" height="100%" viewBox="0 0 175 175" version="1.1" xmlns="http://www.w3.org/2000/svg" xmlns:xlink="http://www.w3.org/1999/xlink" xml:space="preserve" style="fill-rule:evenodd;clip-rule:evenodd;stroke-linejoin:round;stroke-miterlimit:1.41421;">
    <g transform="matrix(1,0,0,1,-111.5,-182)">
        <g transform="matrix(0.996183,0,0,0.996183,0.126735,0.694751)">
            <path d="M165.738,234.759C165.738,246.825 175.517,256.607 187.584,256.607C199.647,256.607 209.428,246.825 209.428,234.759C209.428,222.694 199.647,212.917 187.584,212.917C175.518,212.917 165.738,222.693 165.738,234.759Z" style="fill:#5d5d5d;fill-rule:nonzero;stroke:#5d5d5d;stroke-width:1px;"/>
        </g>
        <g transform="matrix(0.996183,0,0,0.996183,0.126735,0.694751)">
            <path d="M284.63,221.217C284.63,221.217 260.52,222.98 220.013,250.515C197.897,265.373 186.744,278.635 186.744,278.635C186.744,278.635 170.932,260.386 152.444,247.957L136.443,269.13C136.443,269.13 149.838,277.843 164.115,290.644C177.644,302.775 187.156,315.634 187.156,315.634C187.156,315.634 199.191,292.449 223.57,268.426C232.252,259.873 241.304,252.57 249.774,246.518C249.015,276.374 242.531,320.649 187.14,344.081C124.406,317.542 124.405,264.268 124.405,235.483L124.405,222.631L124.398,222.631C124.541,215.628 126.123,210.894 129.48,207.387C133.442,203.252 140.511,200.212 151.089,198.091C174.393,193.421 202.613,193.407 222.985,198.056C244.085,202.872 248.929,211.458 249.721,220.454C254.155,219.116 258.239,218.043 261.96,217.184C260.832,209.747 257.694,203.489 252.584,198.524C246.59,192.702 237.824,188.537 225.785,185.789C203.817,180.774 173.526,180.759 148.616,185.752C135.246,188.433 126.279,192.541 120.393,198.683C114.722,204.601 111.991,212.238 111.817,222.63L111.8,222.63L111.8,235.482C111.8,254.273 112.549,276.128 121.501,297.771C126.63,310.176 134.02,321.197 143.465,330.527C154.327,341.26 168.231,350.081 184.787,356.74L187.139,357.688L189.489,356.74C206.046,350.081 219.949,341.261 230.812,330.527C240.255,321.197 247.647,310.176 252.776,297.771C261.325,277.097 262.393,256.228 262.472,238.024C276.846,229.042 287.306,224.543 287.306,224.543L284.63,221.217Z" style="fill:#5d5d5d;fill-rule:nonzero;stroke:#5d5d5d;stroke-width:1px;"/>
        </g>
    </g>
</svg>
